<svg width="11919" height="2192" viewBox="0 0 11919 2192" fill="none" xmlns="http://www.w3.org/2000/svg">
<path fill-rule="evenodd" clip-rule="evenodd" d="M1092.73 2149.61L823.557 12.8142H272.383L0 2149.61H426.199L455.039 1726.74H628.082L663.332 2149.61H1092.73ZM544.765 544.611L605.651 1374.34H480.675L544.765 544.611Z" fill="white"/>
<path d="M2184.29 2149.61V12.8142H1793.34V1092.43L1585.05 12.8142H1146.03V2149.61H1524.17V1127.66L1722.84 2149.61H2184.29Z" fill="white"/>
<path fill-rule="evenodd" clip-rule="evenodd" d="M3336.86 1505.69V647.126C3336.86 201.826 3330.45 169.79 3250.34 86.4969C3183.05 12.8142 3115.75 0 2824.14 0C2519.71 0 2442.81 16.0179 2375.51 99.3112C2361.7 115.747 2350.73 128.809 2342 143.233C2308.22 199.098 2308.22 275.384 2308.22 647.126V1765.18C2308.22 1970.21 2353.08 2069.52 2462.03 2120.78C2526.12 2149.61 2596.62 2156.02 2801.71 2156.02C2997.18 2156.02 3080.5 2149.61 3141.39 2133.59C3234.32 2107.96 3295.2 2047.1 3320.84 1941.38C3336.86 1883.71 3336.86 1842.07 3336.86 1505.69ZM2756.85 1592.19V538.204C2756.85 474.132 2756.85 426.078 2760.05 410.06C2766.46 374.82 2792.1 352.395 2820.94 352.395C2846.57 352.395 2872.21 368.413 2878.62 394.042C2879.67 397.727 2880.55 400.806 2881.29 403.92C2885.03 419.754 2885.03 436.472 2885.03 538.204V1592.19C2885.03 1725.74 2885.03 1743.3 2878.73 1758.2C2877.78 1760.46 2876.68 1762.65 2875.41 1765.18C2865.8 1787.6 2846.57 1800.42 2820.94 1800.42C2801.71 1800.42 2782.48 1787.6 2769.66 1768.38C2767.67 1764.89 2765.98 1761.94 2764.56 1758.87C2756.85 1742.23 2756.85 1722.01 2756.85 1592.19Z" fill="white"/>
<path d="M4076.12 2149.61V358.802H4300.44V12.8142H3399.98V358.802H3624.29V2149.61H4076.12Z" fill="white"/>
<path d="M5374.75 2149.61V12.8142H4922.91V797.695H4791.53V12.8142H4342.9V2149.61H4791.53V1150.09H4922.91V2149.61H5374.75Z" fill="white"/>
<path d="M5973.01 1794.01V1146.89H6222.96V797.695H5973.01V355.599H6222.96V12.8142H5521.18V2149.61H6222.96V1794.01H5973.01Z" fill="white"/>
<path fill-rule="evenodd" clip-rule="evenodd" d="M6820.26 12.8142H6339.58V2149.61H6791.42V1297.46H6810.64C6853.27 1297.46 6879.22 1297.46 6895.02 1310.12C6919.6 1329.82 6919.6 1380.17 6919.6 1508.89V2149.61H7371.43V1595.39C7371.43 1342.31 7365.02 1287.84 7323.36 1214.16C7291.32 1156.5 7246.46 1121.26 7169.55 1095.63C7326.57 1053.98 7371.43 951.467 7371.43 653.533V429.281C7371.43 224.251 7339.39 124.94 7249.66 70.4789C7173.03 19.4056 7163.21 19.2222 6823.94 12.883L6820.26 12.8142ZM6823.46 906.617H6791.42V358.802C6913.19 358.802 6919.6 365.209 6919.6 518.982V749.641C6919.6 887.395 6906.78 906.617 6823.46 906.617Z" fill="white"/>
<path fill-rule="evenodd" clip-rule="evenodd" d="M7957.18 1790.81V12.8142H7505.35V2149.61H8619.46L8648.3 1726.74H8821.34L8856.59 2149.61H9286L9016.82 12.8142H8465.64L8229.56 1864.84V1790.81H7957.18ZM8738.03 544.611L8798.91 1374.34H8673.94L8738.03 544.611Z" fill="white"/>
<path d="M10377.6 2149.61V12.8142H9986.6V1092.43L9778.31 12.8142H9339.3V2149.61H9717.43V1127.66L9916.11 2149.61H10377.6Z" fill="white"/>
<path fill-rule="evenodd" clip-rule="evenodd" d="M10959.7 12.8142H10520.7V2149.61H10898.8C11183.4 2146.9 11227.3 2146.48 11270.9 2142.54C11278.8 2141.83 11286.8 2140.99 11296.2 2140C11360.3 2130.39 11430.8 2098.35 11469.2 2059.91C11542.9 1986.23 11559 1909.34 11559 1617.81V563.832C11559 269.102 11542.9 185.808 11475.6 108.922C11401.9 22.4251 11347.5 12.8142 10959.7 12.8142ZM11007.8 1800.42H10972.5V365.209C10988.6 362.006 11004.6 362.006 11011 362.006C11055.9 362.006 11084.7 374.82 11094.3 403.653C11100.7 422.874 11100.7 426.078 11100.7 535V1537.72C11100.7 1712.84 11100.7 1771.22 11073.2 1790.69C11059.4 1800.42 11038.8 1800.42 11007.8 1800.42Z" fill="white"/>
<path d="M11915.7 2192V2175.3H11786.5V2174.87L11885.8 2142.79V2137.08L11786.5 2105.01V2104.57H11915.7V2087.87H11761.9V2112.48L11848.9 2139.72V2140.16L11761.9 2167.4V2192H11915.7Z" fill="white"/>
<path fill-rule="evenodd" clip-rule="evenodd" d="M11915.7 1960.16V1941.05L11761.9 1992.01V2011.12L11915.7 2062.09V2042.97L11885.6 2033.53V1970.48L11915.7 1960.16ZM11869.8 1975.75V2028.48L11786.3 2001.9V2001.46L11869.8 1975.75Z" fill="white"/>
<path fill-rule="evenodd" clip-rule="evenodd" d="M11915.7 1908.89V1890.21H11852.9V1866.05L11915.7 1832.66V1812.23L11851.5 1846.5C11847.4 1823.43 11832.2 1808.28 11807.6 1808.28C11777.7 1808.28 11761.9 1827.83 11761.9 1860.12V1908.89H11915.7ZM11836.6 1861.22V1890.21H11778.6V1861.66C11778.6 1838.59 11788.3 1826.95 11807.6 1826.95C11827.8 1826.95 11836.6 1840.79 11836.6 1861.22Z" fill="white"/>
<path d="M11915.7 1771.28V1752.61H11862.5L11843 1735.92V1735.48L11915.7 1683.19V1660.79L11829.1 1723.18L11761.9 1666.94V1689.79L11837 1752.17V1752.61H11761.9V1771.28H11915.7Z" fill="white"/>
<path d="M11915.7 1628.41V1537.46H11899V1609.52H11844.7V1543.62H11828.5V1609.52H11778.6V1537.46H11761.9V1628.41H11915.7Z" fill="white"/>
<path d="M11915.7 1456.76V1438.31H11778.6V1386.68H11761.9V1508.6H11778.6V1456.76H11915.7Z" fill="white"/>
<path d="M11778.4 1355.18V1318.5H11899.2V1355.18H11915.7V1262.92H11899.2V1299.82H11778.4V1262.92H11761.9V1355.18H11778.4Z" fill="white"/>
<path d="M11915.7 1219.78V1202.2H11793.1V1201.76L11915.7 1140.03V1121.36H11761.9V1138.94H11884.5V1139.38L11761.9 1200.66V1219.78H11915.7Z" fill="white"/>
<path d="M11898.8 1070.53C11912.2 1059.11 11919 1044.83 11919 1027.48C11919 1011.88 11913.3 998.917 11902.1 989.032C11890.7 978.927 11875.1 973.875 11855.3 973.875H11840.3V1030.77H11857V992.108C11884.5 991.449 11901.9 1005.73 11901.9 1027.48C11901.9 1051.42 11879.4 1067.68 11837.3 1067.68C11796.8 1067.68 11776 1051.2 11776 1027.48C11776 1008.14 11790.7 996.94 11812.6 993.426L11809.4 975.193C11794.2 977.609 11782.1 983.54 11772.7 992.986C11763.2 1002.43 11758.6 1014.08 11758.6 1027.48C11758.6 1044.17 11765.4 1058.45 11779.2 1070.09C11793.1 1081.73 11812.4 1087.45 11837.3 1087.45C11864.7 1087.45 11885.4 1081.73 11898.8 1070.53Z" fill="white"/>
<path fill-rule="evenodd" clip-rule="evenodd" d="M11915.7 724.984V705.872L11761.9 756.837V775.948L11915.7 826.913V807.801L11885.6 798.355V735.309L11915.7 724.984ZM11869.8 740.581V793.303L11786.3 766.722V766.283L11869.8 740.581Z" fill="white"/>
<path d="M11898.8 666.244C11912.2 654.82 11919 640.542 11919 623.187C11919 607.59 11913.3 594.63 11902.1 584.744C11890.7 574.639 11875.1 569.587 11855.3 569.587H11840.3V626.482H11857V587.82C11884.5 587.161 11901.9 601.439 11901.9 623.187C11901.9 647.132 11879.4 663.388 11837.3 663.388C11796.8 663.388 11776 646.912 11776 623.187C11776 603.856 11790.7 592.652 11812.6 589.138L11809.4 570.905C11794.2 573.321 11782.1 579.252 11772.7 588.698C11763.2 598.144 11758.6 609.787 11758.6 623.187C11758.6 639.883 11765.4 654.161 11779.2 665.804C11793.1 677.447 11812.4 683.159 11837.3 683.159C11864.7 683.159 11885.4 677.447 11898.8 666.244Z" fill="white"/>
<path d="M11915.7 531.718V440.773H11899V512.826H11844.7V446.924H11828.5V512.826L11778.6 512.826V440.773H11761.9V531.718H11915.7Z" fill="white"/>
<path d="M11915.7 400.048V382.474H11793.1V382.034L11915.7 320.305V301.633H11761.9V319.207H11884.5V319.646L11761.9 380.936V400.048H11915.7Z" fill="white"/>
<path d="M11837.5 247.068C11796.8 247.068 11776 231.471 11776 207.746C11776 187.316 11792.4 176.332 11815.5 172.818L11812.2 154.365C11796.4 156.342 11783.4 162.054 11773.5 171.719C11763.6 181.385 11758.6 193.467 11758.6 207.746C11758.6 224.441 11765.4 238.5 11779.2 249.924C11792.9 261.127 11812.2 266.839 11837.5 266.839C11865.2 266.839 11885.6 261.347 11899 250.143C11912.4 238.94 11919 224.661 11919 207.746C11919 192.369 11913.7 179.847 11903.4 170.182C11892.9 160.516 11878.8 155.024 11861 153.926L11858.6 173.037C11884.3 175.014 11901.9 186.437 11901.9 207.746C11901.9 232.13 11879.9 247.068 11837.5 247.068Z" fill="white"/>
<path d="M11915.7 83.1048V64.6521H11850.9L11761.9 13.9072V34.5566L11833.3 73.6588V74.0981L11761.9 113.2V133.85L11850.9 83.1048H11915.7Z" fill="white"/>
</svg>
