<svg width="12197" height="3147" viewBox="0 0 12197 3147" fill="none" xmlns="http://www.w3.org/2000/svg">
<path d="M869.019 15.7264L1153.06 2638.14H699.949L662.754 2119.16H480.158L449.726 2638.14H0L287.419 15.7264H869.019ZM639.084 1686.68L574.838 668.38L507.21 1686.68H639.084ZM2304.88 15.7264V2638.14H1817.96L1608.31 1383.94V2638.14H1209.3V15.7264H1672.55L1892.35 1340.69V15.7264H2304.88ZM3521.07 794.193V1847.88C3521.07 2260.7 3521.07 2311.81 3504.16 2382.58C3477.11 2512.32 3412.86 2587.03 3314.8 2618.48C3250.56 2638.14 3162.64 2646 2956.38 2646C2739.97 2646 2665.58 2638.14 2597.95 2602.75C2482.98 2539.85 2435.64 2417.96 2435.64 2166.34V2020.87V1847.88V794.193C2435.64 220.172 2435.64 220.172 2506.65 121.881C2577.66 19.6583 2658.81 0 2980.04 0C3287.75 0 3358.76 15.7264 3429.77 106.154C3514.31 208.377 3521.07 247.694 3521.07 794.193ZM2909.04 660.517V1954.03C2909.04 2142.75 2909.04 2142.75 2922.56 2170.27C2936.09 2193.86 2956.37 2209.59 2976.66 2209.59C3003.71 2209.59 3024 2193.86 3034.15 2166.34C3044.29 2142.75 3044.29 2142.75 3044.29 1954.03V660.517C3044.29 511.114 3044.29 511.114 3037.53 483.593C3030.77 452.14 3003.71 432.481 2976.66 432.481C2946.23 432.481 2919.18 460.003 2912.42 503.251C2909.04 522.909 2909.04 581.884 2909.04 660.517ZM4301.14 440.345V2638.14H3824.36V440.345H3587.66V15.7264H4537.84V440.345H4301.14ZM5671.45 15.7264V2638.14H5194.68V1411.46H5056.04V2638.14H4582.64V15.7264H5056.04V978.981H5194.68V15.7264H5671.45ZM6302.74 1407.53V2201.72H6566.49V2638.14H5825.96V15.7264H6566.49V436.413H6302.74V978.981H6566.49V1407.53H6302.74ZM6689.57 15.7264H7196.78C7558.59 23.5898 7568.74 23.5898 7649.89 86.4961C7744.57 153.334 7778.38 275.215 7778.38 526.841V802.056C7778.38 1167.7 7731.04 1293.51 7565.35 1344.62C7646.51 1376.08 7693.85 1419.33 7727.66 1490.1C7771.62 1580.52 7778.38 1647.36 7778.38 1957.96V2638.14H7301.61V1851.81C7301.61 1592.32 7301.61 1592.32 7186.64 1592.32H7166.35V2638.14H6689.57V15.7264ZM7166.35 1112.66H7200.16C7288.08 1112.66 7301.61 1089.07 7301.61 920.006V636.927C7301.61 448.208 7294.84 440.345 7166.35 440.345V1112.66ZM8396.41 15.7264V2197.79H8683.82V2638.14H7919.63V15.7264H8396.41ZM9514.59 15.7264L9798.62 2638.14H9345.52L9308.32 2119.16H9125.72L9095.29 2638.14H8645.57L8932.99 15.7264H9514.59ZM9284.65 1686.68L9220.4 668.38L9152.78 1686.68H9284.65ZM10950.4 15.7264V2638.14H10463.5L10253.9 1383.94V2638.14H9854.85V15.7264H10318.1L10537.9 1340.69V15.7264H10950.4ZM11101.4 15.7264H11564.7C11973.8 15.7264 12031.3 27.5214 12109.1 133.676C12180.1 228.036 12197 330.259 12197 691.97V1985.48C12197 2343.26 12180.1 2437.62 12102.3 2528.05C12061.7 2575.23 11987.4 2614.55 11919.7 2626.34C11855.5 2634.21 11855.5 2634.21 11500.4 2638.14H11101.4V15.7264ZM11578.2 2209.59H11615.4C11713.5 2209.59 11713.5 2209.59 11713.5 1887.19V656.585C11713.5 522.909 11713.5 518.978 11706.7 495.388C11696.6 460.003 11666.1 444.276 11618.8 444.276C11612 444.276 11595.1 444.276 11578.2 448.208V2209.59Z" fill="white"/>
<path d="M3963.62 3142.95H3946V2954.05H3971.97L4000.73 3060.91H4001.19L4029.95 2954.05H4055.92V3142.95H4038.3V2984.27H4037.83L4003.97 3106.25H3997.95L3964.09 2984.27H3963.62V3142.95ZM4215.55 3142.95H4195.38L4184.48 3105.98H4117.92L4107.95 3142.95H4087.78L4141.58 2954.05H4161.75L4215.55 3142.95ZM4123.26 3086.55H4178.91L4151.78 2984H4151.32L4123.26 3086.55ZM4273.85 3142.95H4254.13V2954.05H4305.62C4339.7 2954.05 4360.34 2973.48 4360.34 3010.18C4360.34 3040.4 4344.34 3059.02 4319.99 3064.15L4356.17 3142.95H4334.6L4299.35 3065.77H4273.85V3142.95ZM4273.85 2974.56V3045.8H4304.46C4326.02 3045.8 4340.63 3035.01 4340.63 3010.18C4340.63 2986.43 4328.34 2974.56 4303.99 2974.56H4273.85ZM4423.75 3142.95H4404.04V2954.05H4423.75V3046.34H4424.21L4490.07 2954.05H4514.19L4454.82 3036.63L4520.68 3142.95H4497.03L4441.84 3053.63H4441.37L4423.75 3077.65V3142.95ZM4655.5 3142.95H4559.5V2954.05H4655.5V2974.56H4579.44V3035.82H4649.01V3055.79H4579.44V3122.44H4655.5V3142.95ZM4764.81 3142.95H4745.33V2974.56H4690.6V2954.05H4819.31V2974.56H4764.81V3142.95ZM4895.93 2974.29H4857.2V2954.05H4954.6V2974.29H4915.64V3122.71H4954.6V3142.95H4857.2V3122.71H4895.93V2974.29ZM5023.33 3142.95H5004.78V2954.05H5024.95L5089.65 3104.63H5090.12V2954.05H5108.67V3142.95H5088.96L5023.79 2992.37H5023.33V3142.95ZM5212.42 3147C5194.1 3147 5179.03 3138.63 5166.97 3122.17C5155.14 3105.71 5149.11 3080.34 5149.11 3046.61C5149.11 3016.12 5155.14 2992.37 5167.43 2975.37C5179.72 2958.37 5194.8 2950 5212.42 2950C5226.57 2950 5238.86 2955.67 5248.83 2967.27C5258.8 2978.88 5265.06 2993.72 5267.61 3012.34L5248.37 3016.39C5244.66 2989.4 5232.83 2971.32 5212.42 2971.32C5187.38 2971.32 5169.98 2996.96 5169.98 3046.61C5169.98 3098.42 5187.15 3125.95 5212.42 3125.95C5235.38 3125.95 5250.45 3104.63 5249.76 3070.9H5208.94V3050.39H5269.01V3068.74C5269.01 3093.03 5263.67 3112.19 5253 3126.22C5242.57 3139.98 5228.89 3147 5212.42 3147ZM5561.2 3142.95H5541.02L5530.12 3105.98H5463.57L5453.6 3142.95H5433.42L5487.22 2954.05H5507.4L5561.2 3142.95ZM5468.9 3086.55H5524.56L5497.42 2984H5496.96L5468.9 3086.55ZM5614.85 3142.95H5596.3V2954.05H5616.47L5681.17 3104.63H5681.64V2954.05H5700.19V3142.95H5680.48L5615.32 2992.37H5614.85V3142.95ZM5765.9 2974.56V3122.44H5787.47C5822.72 3122.44 5840.34 3097.62 5840.34 3048.23C5840.34 3000.73 5820.63 2974.56 5788.86 2974.56H5765.9ZM5789.09 3142.95H5745.96V2954.05H5790.48C5826.66 2954.05 5861.21 2982.92 5861.21 3048.23C5861.21 3082.77 5852.63 3108.95 5838.49 3122.98C5824.34 3136.75 5808.34 3142.95 5789.09 3142.95ZM6093.81 2971.32C6068.76 2971.32 6052.3 2996.96 6052.3 3046.88C6052.3 3098.96 6068.07 3125.95 6093.81 3125.95C6116.3 3125.95 6128.36 3104.36 6130.45 3072.79L6150.62 3075.76C6149.46 3097.62 6143.66 3114.89 6133.46 3127.84C6123.26 3140.52 6110.04 3147 6093.81 3147C6075.95 3147 6060.88 3138.9 6049.05 3122.44C6037.22 3105.98 6031.43 3080.88 6031.43 3046.88C6031.43 3015.85 6037.46 2992.1 6049.28 2975.37C6061.34 2958.37 6076.18 2950 6093.81 2950C6108.88 2950 6121.63 2956.21 6131.84 2968.35C6142.04 2980.49 6148.07 2996.42 6150.16 3015.85L6130.68 3019.89C6126.97 2991.56 6115.37 2971.32 6093.81 2971.32ZM6211.01 3142.95H6191.3V2954.05H6242.78C6276.87 2954.05 6297.51 2973.48 6297.51 3010.18C6297.51 3040.4 6281.51 3059.02 6257.16 3064.15L6293.33 3142.95H6271.77L6236.52 3065.77H6211.01V3142.95ZM6211.01 2974.56V3045.8H6241.62C6263.19 3045.8 6277.8 3035.01 6277.8 3010.18C6277.8 2986.43 6265.51 2974.56 6241.16 2974.56H6211.01ZM6441.84 3142.95H6345.83V2954.05H6441.84V2974.56H6365.77V3035.82H6435.34V3055.79H6365.77V3122.44H6441.84V3142.95ZM6605.14 3142.95H6585.04L6574.12 3105.98H6507.55L6497.58 3142.95H6477.4L6531.2 2954.05H6551.38L6605.14 3142.95ZM6512.88 3086.55H6568.52L6541.41 2984H6540.94L6512.88 3086.55ZM6701.96 3142.95H6682.54V2974.56H6627.75V2954.05H6756.45V2974.56H6701.96V3142.95ZM6833.08 2974.29H6794.33V2954.05H6891.73V2974.29H6852.79V3122.71H6891.73V3142.95H6794.33V3122.71H6833.08V2974.29ZM7006.13 3142.95H6982.55L6929.89 2954.05H6950.96L6994.15 3115.7H6994.54L7036.76 2954.05H7057.63L7006.13 3142.95ZM7196 3142.95H7099.95V2954.05H7196V2974.56H7119.86V3035.82H7189.43V3055.79H7119.86V3122.44H7196V3142.95ZM7498.33 3142.95H7478.14L7467.32 3105.98H7400.74L7390.79 3142.95H7370.6L7424.42 2954.05H7444.51L7498.33 3142.95ZM7406.06 3086.55H7461.71L7434.56 2984H7434.08L7406.06 3086.55ZM7590.32 3147C7571.96 3147 7556.89 3138.63 7544.81 3122.17C7533.02 3105.71 7526.93 3080.34 7526.93 3046.61C7526.93 3016.12 7533.02 2992.37 7545.29 2975.37C7557.56 2958.37 7572.64 2950 7590.32 2950C7604.43 2950 7616.7 2955.67 7626.65 2967.27C7636.7 2978.88 7642.88 2993.72 7645.49 3012.34L7626.26 3016.39C7622.49 2989.4 7610.71 2971.32 7590.32 2971.32C7565.2 2971.32 7547.8 2996.96 7547.8 3046.61C7547.8 3098.42 7565 3125.95 7590.32 3125.95C7613.22 3125.95 7628.29 3104.63 7627.62 3070.9H7586.84V3050.39H7646.84V3068.74C7646.84 3093.03 7641.53 3112.19 7630.9 3126.22C7620.47 3139.98 7606.75 3147 7590.32 3147ZM7787.53 3142.95H7691.48V2954.05H7787.53V2974.56H7711.39V3035.82H7780.96V3055.79H7711.39V3122.44H7787.53V3142.95ZM7853.62 3142.95H7835.07V2954.05H7855.26L7920 3104.63H7920.48V2954.05H7939.03V3142.95H7919.32L7854.1 2992.37H7853.62V3142.95ZM8042.71 2971.32C8017.69 2971.32 8001.26 2996.96 8001.26 3046.88C8001.26 3098.96 8017.01 3125.95 8042.71 3125.95C8065.23 3125.95 8077.3 3104.36 8079.43 3072.79L8099.53 3075.76C8098.37 3097.62 8092.57 3114.89 8082.42 3127.84C8072.18 3140.52 8058.95 3147 8042.71 3147C8024.93 3147 8009.86 3138.9 7997.98 3122.44C7986.19 3105.98 7980.39 3080.88 7980.39 3046.88C7980.39 3015.85 7986.38 2992.1 7998.27 2975.37C8010.25 2958.37 8025.13 2950 8042.71 2950C8057.79 2950 8070.54 2956.21 8080.78 2968.35C8091.02 2980.49 8097.02 2996.42 8099.14 3015.85L8079.62 3019.89C8075.95 2991.56 8064.36 2971.32 8042.71 2971.32ZM8198.47 3142.95H8178.95V3063.34L8125.42 2954.05H8147.16L8188.42 3041.75H8188.9L8230.16 2954.05H8252L8198.47 3063.34V3142.95Z" fill="white"/>
</svg>
